<svg id="Capa_1" data-name="Capa 1" xmlns="http://www.w3.org/2000/svg" viewBox="0 0 50 50"><defs><style>.cls-1{fill:#1f331c;}.cls-2{fill:#3f3828;}.cls-3{fill:#433124;}.cls-4{fill:#24301e;}.cls-5{fill:#2e2b1d;}.cls-6{fill:#190906;}.cls-7{fill:#f0e85b;}.cls-8{fill:#f4e25d;}.cls-9{fill:#1a301b;}.cls-10{fill:#481817;}.cls-11{fill:#1a3c1e;}.cls-12{fill:#1a4721;}.cls-13{fill:#193843;}.cls-14{fill:#1b321c;}.cls-15{fill:#333c28;}.cls-16{fill:#252c1a;}.cls-17{fill:#1c4720;}.cls-18{fill:#233225;}.cls-19{fill:#302615;}.cls-20{fill:#1a411d;}.cls-21{fill:#351317;}.cls-22{fill:#1d4b23;}.cls-23{fill:#161520;}.cls-24{fill:#3c351c;}.cls-25{fill:#502321;}.cls-26{fill:#1a4c23;}.cls-27{fill:#1b391e;}.cls-28{fill:#223330;}.cls-29{fill:#234f2a;}.cls-30{fill:#5f5a44;}.cls-31{fill:#171222;}.cls-32{fill:#2c2515;}.cls-33{fill:#0f0706;}.cls-34{fill:#282f3d;}.cls-35{fill:#322b1b;}.cls-36{fill:#1e331b;}.cls-37{fill:#2c120f;}.cls-38{fill:#2f2615;}.cls-39{fill:#16301d;}.cls-40{fill:#1b2227;}.cls-41{fill:#17311c;}.cls-42{fill:#1b1b15;}.cls-43{fill:#1a2317;}.cls-44{fill:#50af49;}.cls-45{fill:#d83e42;}.cls-46{fill:#1c3633;}.cls-47{fill:#641716;}.cls-48{fill:#143538;}.cls-49{fill:#1a3d22;}.cls-50{fill:#1a4d24;}.cls-51{fill:#44411e;}.cls-52{fill:#184821;}.cls-53{fill:#244526;}.cls-54{fill:#1b2d45;}.cls-55{fill:#163044;}.cls-56{fill:#4a1613;}.cls-57{fill:#56211b;}.cls-58{fill:#2c5c30;}.cls-59{fill:#3a381a;}.cls-60{fill:#344251;}.cls-61{fill:#202b19;}.cls-62{fill:#6a2424;}.cls-63{fill:#2c3620;}.cls-64{fill:#1c3922;}.cls-65{fill:#332819;}.cls-66{fill:#2a2b28;}.cls-67{fill:#601713;}.cls-68{fill:#283926;}.cls-69{fill:#250f0b;}.cls-70{fill:#131a2f;}.cls-71{fill:#5391bc;}.cls-72{fill:#1b160e;}.cls-73{fill:#1a3b1d;}.cls-74{fill:#20341d;}.cls-75{fill:#172a19;}.cls-76{fill:#19431f;}.cls-77{fill:#18341c;}.cls-78{fill:#9dc267;}.cls-79{fill:#18331c;}.cls-80{fill:#1a2316;}.cls-81{fill:#3dab3d;}.cls-82{fill:#58b259;}.cls-83{fill:#f2ea8d;}.cls-84{fill:#d9ad86;}.cls-85{fill:#d0765c;}.cls-86{fill:#38aa44;}.cls-87{fill:#7fbd59;}.cls-88{fill:#c5d89d;}.cls-89{fill:#d5df7b;}.cls-90{fill:#75b953;}.cls-91{fill:#b9d267;}.cls-92{fill:#ece08d;}.cls-93{fill:#46ad44;}.cls-94{fill:#e27568;}.cls-95{fill:#56b258;}.cls-96{fill:#b1ab8a;}.cls-97{fill:#7dbe7d;}.cls-98{fill:#add087;}.cls-99{fill:#b41f1c;}.cls-100{fill:#ce1b1a;}.cls-101{fill:#891819;}.cls-102{fill:#40ab3a;}.cls-103{fill:#35aa47;}.cls-104{fill:#61a972;}.cls-105{fill:#438a4f;}.cls-106{fill:#36a938;}.cls-107{fill:#1d77ba;}.cls-108{fill:#579999;}.cls-109{fill:#5ea7a6;}.cls-110{fill:#41ad55;}.cls-111{fill:#45ad47;}.cls-112{fill:#71c1b0;}.cls-113{fill:#58b470;}.cls-114{fill:#92b982;}.cls-115{fill:#abc4b3;}.cls-116{fill:#87b9d0;}.cls-117{fill:#468eca;}.cls-118{fill:#e5201d;}.cls-119{fill:#e8403e;}.cls-120{fill:#67171f;}.cls-121{fill:#1d72b9;}.cls-122{fill:#53b04c;}.cls-123{fill:#073d38;}.cls-124{fill:#185026;}.cls-125{fill:#19391d;}.cls-126{fill:#7dbe6f;}.cls-127{fill:#1a3b1e;}.cls-128{fill:#e52321;}.cls-129{fill:#4db272;}.cls-130{fill:#074124;}.cls-131{fill:#79beae;}.cls-132{fill:#3eab58;}.cls-133{fill:#3c9c4a;}.cls-134{fill:#2772b5;}.cls-135{fill:#385c77;}.cls-136{fill:#439758;}.cls-137{fill:#5fb45a;}.cls-138{fill:#a2c880;}.cls-139{fill:#8da774;}.cls-140{fill:#168f38;}.cls-141{fill:#19371d;}.cls-142{fill:#1a431f;}.cls-143{fill:#72b959;}.cls-144{fill:#5ab35c;}.cls-145{fill:#bea281;}.cls-146{fill:#ce9980;}.cls-147{fill:#a3cb77;}.cls-148{fill:#76bd7a;}.cls-149{fill:#303a1b;}.cls-150{fill:#b94232;}.cls-151{fill:#b38f72;}.cls-152{fill:#21325f;}.cls-153{fill:#51ae69;}.cls-154{fill:#156b30;}.cls-155{fill:#a4b78e;}.cls-156{fill:#a16e4f;}.cls-157{fill:#ebe37e;}</style></defs><title>Mesa de trabajo 1</title><path class="cls-1" d="M46.85,10.53c1.07.07,2.08-.4,3.15-.25v.23a23.08,23.08,0,0,1-5.09,1.89,6.39,6.39,0,0,1-1.3.14,1.55,1.55,0,0,1-.93,0c-.12-.47.26-.47.52-.53.43-.09.87-.09,1.31-.2s1.09-.24,1.63-.4S47.39,11,48,10.9c-.41,0-.78.28-1.21.2a.43.43,0,0,1-.24-.2A.37.37,0,0,1,46.85,10.53Z"/><path class="cls-2" d="M5.34,50a6.49,6.49,0,0,1-4.8-4.47c-.12-.36-.4-.73-.08-1.13.85.37.55,1.37,1.05,1.93a5.42,5.42,0,0,0,3.77,3,.69.69,0,0,1,.61.41.4.4,0,0,1-.09.3Z"/><path class="cls-3" d="M12.83,46.86A6.06,6.06,0,0,1,8.44,50H7.78a.38.38,0,0,1-.1-.3c.15-.38.51-.38.82-.43a5.63,5.63,0,0,0,2.31-1,3.66,3.66,0,0,0,1-.82,5.71,5.71,0,0,0,.45-.68.51.51,0,0,1,.32-.23C12.75,46.59,12.79,46.72,12.83,46.86Z"/><path class="cls-4" d="M43.34,0A8.25,8.25,0,0,1,39.7,2.93L39.38,3c-.09-.83.74-.71,1.09-1.08a6.5,6.5,0,0,0,.94-.64.81.81,0,0,0,.24-.42.5.5,0,0,1,.13-.22L42.9,0Z"/><path class="cls-5" d="M.42,44,0,43.75V40.4c.43-.14-.11-1,.67-.89A24.12,24.12,0,0,1,.42,44Z"/><path class="cls-6" d="M7.78,49.75V50h-2l0-.24A1.67,1.67,0,0,1,7.78,49.75Z"/><path class="cls-7" d="M.42,44a9.49,9.49,0,0,1,.25-4.49l0-.22a5.21,5.21,0,0,1,1.92-3.18,7.09,7.09,0,0,1,2.81-1.93c.89,0,.86.6.67,1.22s-.66.85-1,1.28a6.08,6.08,0,0,0-2.66,4,8.16,8.16,0,0,0,.36,5.14,1.61,1.61,0,0,1,0,.44c0,.34.06.71-.32.88s-.63-.09-.86-.33-.24-.28-.37-.41c-.52-.58-.45-1.42-.89-2C.43,44.25.43,44.13.42,44Z"/><path class="cls-8" d="M29.78,28.25v.05a3.4,3.4,0,0,0-.4.81.73.73,0,0,1-.38.52,1.28,1.28,0,0,1-1.52-.54c-.13-1,.53-1.71.78-2.57a4.55,4.55,0,0,1,2.4-1.28,4.24,4.24,0,0,1,2.89.29A2.81,2.81,0,0,1,35.4,29c-.38.68-.8,1.27-1.68.67.59-1.23.52-1.6-.43-2.39h0a2.22,2.22,0,0,0-2.16-.2C30.59,27.31,30,27.55,29.78,28.25Z"/><path class="cls-9" d="M14.73,13.59A56.58,56.58,0,0,1,14.67,7a4,4,0,0,0-2.61-4.27.44.44,0,0,1-.26-.29c1.95,0,3.49-1.22,5.32-1.43a.37.37,0,0,1,.07.31c-.94.67-2.11.83-3.1,1.4a1.43,1.43,0,0,1-.79,0,1.65,1.65,0,0,1,.53.4c1.3,1.1,1.45,2.59,1.38,4.16,0,.63,0,1.26,0,1.9s0,1,0,1.52c0,.74,0,1.49,0,2.23a1.51,1.51,0,0,1-.06.36C15.05,13.44,15,13.61,14.73,13.59Z"/><path class="cls-10" d="M24.89,22.05a13.83,13.83,0,0,1-6.81-1.93A5.58,5.58,0,0,1,16,17.89c.07-.35.07-.35.52-.11a7.78,7.78,0,0,0,3.53,2.64,5.21,5.21,0,0,0,1.2.43,5.48,5.48,0,0,0,2,.32,2.36,2.36,0,0,1,1.74.55A.37.37,0,0,1,24.89,22.05Z"/><path class="cls-11" d="M23.61,36.35a12.93,12.93,0,0,0,3.09.16,10.58,10.58,0,0,1-4.5-4.36.17.17,0,0,1,0-.24s0,0,0-.05a.63.63,0,0,1,.59.25A10.38,10.38,0,0,0,27.2,36c.38.17.91.32.49,1a1.27,1.27,0,0,1-.32.13c-.82.08-1.63,0-2.45,0a4,4,0,0,1-1.84-.51C23.08,36.19,23.34,36.26,23.61,36.35Z"/><path class="cls-12" d="M18.89.94c.37.29.84.1,1.26.23A3.35,3.35,0,0,1,22.4,5a11.06,11.06,0,0,1-.34,1.49,1.3,1.3,0,0,0,.64,1.75.37.37,0,0,1-.35.31,1.11,1.11,0,0,1-.78-.6,2,2,0,0,1-.11-1.61,6.1,6.1,0,0,0,.26-1.64c0-1.83-.58-2.62-2.36-3.07a1.07,1.07,0,0,1-.69-.33C18.57,1.11,18.71,1,18.89.94Z"/><path class="cls-13" d="M11.64,33a23.57,23.57,0,0,1,6.24,1.54c.94.31,1.85.66,2.78,1,0,.21-.12.29-.29.36a1.23,1.23,0,0,1-.66,0c-1-.36-2-.77-3-1a30.49,30.49,0,0,0-4.39-1.15c-.69-.3-1.56.18-2.16-.48C10.6,32.68,11.14,33,11.64,33Z"/><path class="cls-14" d="M29.27,29.08c0-.39.24-.59.51-.78a3.14,3.14,0,0,0,.66,3.5,3.58,3.58,0,0,0,3.81.79,11.71,11.71,0,0,0,2.35-1.17l.13.13a.61.61,0,0,1-.07.35A5.34,5.34,0,0,1,31.15,33a3.7,3.7,0,0,1-1.62-1.33A3,3,0,0,1,29.27,29.08Z"/><path class="cls-15" d="M11.64,33c-.47.08-1-.08-1.41.16a.36.36,0,0,1-.21.27,21.47,21.47,0,0,0-2.76.46c-.62.23-1.3.23-1.92.49a12.1,12.1,0,0,0-2.67,1.76.24.24,0,0,1,0-.29A10.07,10.07,0,0,1,11.64,33Z"/><path class="cls-16" d="M30.67,25.38a4.06,4.06,0,0,0-2.23,1.16,10.41,10.41,0,0,0-1,2.09c-.16.47.05.95,0,1.42a3.59,3.59,0,0,0,.29,1.48c.17.7.79,1.13,1,1.78a.22.22,0,0,1-.15.23c-1.76-1.12-1.89-2.85-1.72-4.67a4.05,4.05,0,0,1,2.67-3.46c.37-.16.75-.25,1.12-.37C30.8,25.17,30.78,25.27,30.67,25.38Z"/><path class="cls-17" d="M28.41,6.15a21.56,21.56,0,0,1,7.14-3.68.38.38,0,0,1,.09.3c-.44.65-1.26.58-1.85,1a30.47,30.47,0,0,0-3.78,2c-.49.31-.92.86-1.64.68A.28.28,0,0,1,28.41,6.15Z"/><path class="cls-18" d="M22.24,31.87a2.66,2.66,0,0,0,0,.28,7.14,7.14,0,0,1-1-4.72c.36,1.78,1.47,3.17,2.36,4.67l-.1.11a.44.44,0,0,1-.28-.05A3.66,3.66,0,0,1,22.25,31a4.18,4.18,0,0,1-.36-.88c-.06-.14-.18.14-.06,0a9.27,9.27,0,0,1,.42,1C22.34,31.4,22.44,31.64,22.24,31.87Z"/><path class="cls-19" d="M30.67,25.38v-.33a6.07,6.07,0,0,1,2.61.15A3,3,0,0,1,35.55,29c-.09.08-.18.08-.23,0C35.46,26.23,33.69,24.86,30.67,25.38Z"/><path class="cls-20" d="M31.93,35.63c.53-.54-.12-.47-.3-.53a6.84,6.84,0,0,1-3-1.55l.08-.06a.55.55,0,0,1,.71,0,12.73,12.73,0,0,0,3,1.14c.32.09.82.15.73.65s-.44.65-.92.58A.38.38,0,0,1,31.93,35.63Z"/><path class="cls-21" d="M31.57,21.41A12,12,0,0,1,28,22a.4.4,0,0,1,0-.35c.11-.15.24-.31.41-.33a26.29,26.29,0,0,1,3.52-.46C32.3,21.35,31.69,21.23,31.57,21.41Z"/><path class="cls-22" d="M23.58,32.1,27.11,35a.48.48,0,0,1-.3.17,1.68,1.68,0,0,1-1.26-.57c-.57-.53-1.1-1.08-1.71-1.56-.28-.21-.58-.49-.29-.93Z"/><path class="cls-14" d="M26.9,35a.38.38,0,0,0,.21,0,5.42,5.42,0,0,0,4.82.59.57.57,0,0,0,.11.11.55.55,0,0,1-.4.59,9,9,0,0,1-3,.05C28,36,27.05,36.05,26.9,35Z"/><path class="cls-23" d="M38.61,23.72A5.56,5.56,0,0,0,36,21.5c-.13-.33.12-.39.33-.46a.93.93,0,0,1,.33,0c.95.59,1.94,1.14,2.16,2.41A.36.36,0,0,1,38.61,23.72Z"/><path class="cls-24" d="M2.63,35.83l0,.3a9.48,9.48,0,0,0-2,3.15c-.41-.16-.24-.45-.11-.67A7.61,7.61,0,0,1,2.63,35.83Z"/><path class="cls-25" d="M16.37,17.85c-.13-.06-.27-.23-.37,0A5.74,5.74,0,0,1,14.92,15a.35.35,0,0,1,.28-.1c.33.13.39.46.5.74a4.62,4.62,0,0,0,.41,1.22c.12.3.44.49.45.85A.23.23,0,0,1,16.37,17.85Z"/><path class="cls-26" d="M35.59,2.76c0-.09,0-.19,0-.27l3.56-.86a.32.32,0,0,1,.06.34A4.23,4.23,0,0,1,35.59,2.76Z"/><path class="cls-27" d="M28.41,6.15l0,.28A4.48,4.48,0,0,1,25.07,8.2.35.35,0,0,1,24.84,8Z"/><path class="cls-23" d="M31.57,21.41,32,21a1,1,0,0,1,.69-.33,22.42,22.42,0,0,1,2.32,0c.4.08.8.16.75.71A11.85,11.85,0,0,0,31.57,21.41Z"/><path class="cls-28" d="M37.75,30.27a12,12,0,0,0,1.38-3,.19.19,0,0,1,.28,0h0c.24,1-.45,1.8-.81,2.65-.25.27-.36.74-.88.65A.29.29,0,0,1,37.75,30.27Z"/><path class="cls-29" d="M20.4,35.74l.26-.21,2.95.83-.5.21c-.65.42-1.19-.13-1.79-.21C21,36.18,20.49,36.26,20.4,35.74Z"/><path class="cls-30" d="M35.3,29l.24,0c-.38.94-1,1.38-2,.94a.46.46,0,0,1-.11-.3c.07-.16.16-.28.36-.2C34.52,29.78,34.53,29.78,35.3,29Z"/><path class="cls-31" d="M35.77,21.43a.7.7,0,0,0-.68-.45c-.29-.3-1-.19-.82-.94a.67.67,0,0,1,.64-.07c.48.44,1.38.38,1.52,1.25a.44.44,0,0,0-.45.28A.26.26,0,0,1,35.77,21.43Z"/><path class="cls-32" d="M33.81,29.46a.29.29,0,0,0-.3.21c-.21,0-.28,0-.18-.25.91-.73.91-.92,0-2.18C34.39,27.7,34.57,28.49,33.81,29.46Z"/><path class="cls-27" d="M22.45,8.46l.24-.21A13,13,0,0,0,24.84,8l.05.07C24.34,8.92,23.56,9.05,22.45,8.46Z"/><path class="cls-33" d="M28,22v0a13.47,13.47,0,0,1-3.11.05.86.86,0,0,0,0-.16A2.84,2.84,0,0,1,28,22Z"/><path class="cls-34" d="M39.33,27.24h-.2a6.78,6.78,0,0,0,0-2,.32.32,0,0,1,.36,0A1.37,1.37,0,0,1,39.33,27.24Z"/><path class="cls-35" d="M31.08,26.92c.79-.2,1.59-.47,2.25.33-.74-.06-1.47-.4-2.23-.07-.08-.05-.1-.1-.09-.16S31.05,26.92,31.08,26.92Z"/><path class="cls-36" d="M39.11,1.84V1.63L40.89,1a.35.35,0,0,1,.07.3c-.19.38-.56.47-.91.6S39.41,2.08,39.11,1.84Z"/><path class="cls-37" d="M15.14,15h-.22c0-.47-.4-.88-.19-1.37a.23.23,0,0,0,.14-.13C15.5,13.87,15.53,14,15.14,15Z"/><path class="cls-38" d="M31.08,26.92l0,.26a4.75,4.75,0,0,0-1.33,1.07C29.79,27.39,30.42,27.15,31.08,26.92Z"/><path class="cls-39" d="M37.75,30.27l0,.29c0,.73-.34,1-1.05,1,0,0-.08-.07-.11-.11Z"/><path class="cls-40" d="M39.33,25.23h-.18c-.18-.5-.37-1-.54-1.51a.23.23,0,0,1,.09-.08C39.54,23.91,39.66,24.47,39.33,25.23Z"/><path class="cls-41" d="M18.89.94l-.26.22a1.11,1.11,0,0,1-1.51-.06V.94A6.56,6.56,0,0,1,18.89.94Z"/><path class="cls-42" d="M33.33,29.42l.18.25,0,.29c-.33,0-.68-.13-.69-.49C32.85,29.28,33.15,29.4,33.33,29.42Z"/><path class="cls-43" d="M40.89,1V1c.29-.13.53-.37.88-.34a1.55,1.55,0,0,0,0,.22.6.6,0,0,1-.67.43A.26.26,0,0,1,40.89,1Z"/><path class="cls-44" d="M40.23,16.91l.62.4c.33.05.38.22.12.38s-.49,0-.74-.05a33.32,33.32,0,0,1-3.81-1.26,28.7,28.7,0,0,1-3.56-2.28l-.06,0,.16.1a.63.63,0,0,1,.23.34,1.68,1.68,0,0,1-.94,1.19.72.72,0,0,1-.32,0c-.4-.31-.9-.22-1.34-.35a1.35,1.35,0,0,1-.95-1.12,2.31,2.31,0,0,1,2.17-1.57,10.8,10.8,0,0,0,3.24-.55c.77-.3,1.66.28,2.42-.25a10.24,10.24,0,0,1,2.42,1.29c.79.49,1.67.77,2.48,1.22.26.24.57.47.26.89-2,.54-3.71-.29-5.44-1-.2-.1-.41-.16-.61-.27a13.14,13.14,0,0,0,1.55,1.43l.24.16a15.79,15.79,0,0,0,1.57,1C40.06,16.68,40.11,16.83,40.23,16.91Z"/><path class="cls-45" d="M12.65,46.57l-.24.31c-.44.18-.55-.12-.62-.45a11.33,11.33,0,0,0,.51-2.26c0-.84.07-1.73-.87-2.2l-.29-.23c-.36-.78-1.18-.55-1.76-.81a.87.87,0,0,0-.83-.53c-.25,0-.62,0-.53-.46a4.69,4.69,0,0,1,2.87,0,2.74,2.74,0,0,1,1.78,1.67C13.33,43.27,13.65,44.93,12.65,46.57Z"/><path class="cls-46" d="M40.27,29.93a9.83,9.83,0,0,1-3.19,5.34,12.54,12.54,0,0,1-6.37,3.36c-.22.12-.29,0-.32-.19.65-.65,1.61-.61,2.35-1.08.33-.15.62-.37,1-.51a5.19,5.19,0,0,0,1.79-1.05A11.5,11.5,0,0,0,39,31.61a4,4,0,0,1,.33-.69c.21-.35.26-.79.61-1.07A.32.32,0,0,1,40.27,29.93Z"/><path class="cls-47" d="M9.36,40.82c.68.14,1.54-.1,1.76.93-1.35-.76-2.71-.59-3.45.47-.32.45-.49,1,.11,1.34a1.29,1.29,0,0,1,.65,1.6,1.46,1.46,0,0,1-1.33,1,1.53,1.53,0,0,1-1.56-.86,5.52,5.52,0,0,1-.38-.9c0-.16.12-.29.33-.26.4.19.49.64.77.92s.78.52,1.19.17a.69.69,0,0,0,0-1.08A1.77,1.77,0,0,1,7,42,2.34,2.34,0,0,1,9.36,40.82Z"/><path class="cls-48" d="M36.9,17.61A18.72,18.72,0,0,1,40.34,24c.07.25.09.5.14.75s0,.31-.21.35c-.7-.78-.7-1.86-1.15-2.74A4,4,0,0,0,37.26,20c-.57-.66-1.71-.63-2-1.66a.43.43,0,0,1,.26-.18c.47-.08.8.24,1.16.43a2.43,2.43,0,0,1,.49.35,5.75,5.75,0,0,0-.43-.51.68.68,0,0,1-.14-.73A.24.24,0,0,1,36.9,17.61Z"/><path class="cls-49" d="M16.65,40.28c.47-2.12,2.24-2.32,4-2.62-1-.78-2.16-.91-3.09-1.55a.2.2,0,0,1,.06-.27h0A1.75,1.75,0,0,1,18.7,36c.52.26,1.09.42,1.62.67s1.35.41,1.2,1.35c-.89.5-1.94.39-2.88.73a2.4,2.4,0,0,0-1.38,1.31c-.18.23-.18.69-.64.54A.45.45,0,0,1,16.65,40.28Z"/><path class="cls-50" d="M30.44,38.39l.27.24a15.62,15.62,0,0,1-5.66.33,14.12,14.12,0,0,0-3.73-.16c-.17-.07-.31-.17-.23-.4s.42-.22.65-.28a7,7,0,0,1,2.09,0,48.3,48.3,0,0,0,6.25.11A.52.52,0,0,1,30.44,38.39Z"/><path class="cls-51" d="M2.65,46a8.15,8.15,0,0,1-.27-5.4.15.15,0,0,1,.2,0l0,.06a10.08,10.08,0,0,0,0,4.27c.42,1.83,1.79,2.66,3.34,3.33a.2.2,0,0,1,0,.26H6A3.35,3.35,0,0,1,2.65,46Z"/><path class="cls-52" d="M42.25,14.5c-1.59-.79-3.21-1.5-4.72-2.44-.31-.28-.28-.64.14-.55a9.25,9.25,0,0,1,3.26.85c0,.24-.18.24-.34.25-.77,0-.77,0-.79.29a16.34,16.34,0,0,0,3.56,1.55.29.29,0,0,1,0,.33C42.92,15,42.62,14.57,42.25,14.5Z"/><path class="cls-53" d="M37.12,14.31a.31.31,0,0,1,0-.43s0,0,0,0c1.79.76,3.56,1.58,5.59,1.29A4.59,4.59,0,0,1,45,14.91a.49.49,0,0,1,.59.3,17.56,17.56,0,0,1-4.22.39"/><path class="cls-54" d="M18.72,43.46A3.13,3.13,0,0,0,22,43.23a2.39,2.39,0,0,1-1.91,1.64,3.1,3.1,0,0,1-3.28-1.49.25.25,0,0,1,.24-.16c1,.49,1.78,1.48,3,1.17-.54,0-1.14.06-1.43-.67A.29.29,0,0,1,18.72,43.46Z"/><path class="cls-55" d="M17.55,36v.07a9,9,0,0,1-2.73-.7,18.24,18.24,0,0,0-4.6-.4c-.17-.09-.34-.17-.22-.42.53-.47,1.17-.26,1.78-.3A20.46,20.46,0,0,1,17,35.39C17.26,35.52,17.54,35.65,17.55,36Z"/><path class="cls-56" d="M12.65,46.57a6,6,0,0,0-.12-4.89,2.69,2.69,0,0,0-1.59-1.56c0-.21,0-.29.23-.2a3.49,3.49,0,0,1,2.11,3,5.62,5.62,0,0,1-.45,4Z"/><path class="cls-57" d="M11.42,42c1,.07.9.88,1,1.52A7.33,7.33,0,0,1,12,46.38c-.19.32-.24.73-.53,1a.76.76,0,0,1-.64.27.27.27,0,0,1-.2-.17,5,5,0,0,0,1.5-3.35A3,3,0,0,0,11.42,42Z"/><path class="cls-58" d="M36.44,16.1a22.76,22.76,0,0,0,4.37,1.49.1.1,0,0,0,.1,0c.13-.1,0-.18-.06-.26.29-.31.5,0,.73.08.05.27.11.54-.25.65a30,30,0,0,1-4-1.06c-.36-.15-.83-.11-1-.59A.33.33,0,0,1,36.44,16.1Z"/><path class="cls-59" d="M2.63,40.61l-.24,0a5.94,5.94,0,0,1,2.49-4,1.51,1.51,0,0,1,1-.57.28.28,0,0,1,.18.22L5,37A5.63,5.63,0,0,0,2.63,40.61Z"/><path class="cls-60" d="M40.27,25l.21-.29a7.56,7.56,0,0,1-.21,5.22l-.25,0a.5.5,0,0,1-.16-.33,12.58,12.58,0,0,0,.22-3.87C40.06,25.45,40,25.18,40.27,25Z"/><path class="cls-61" d="M45.59,15.21,45.06,15a2,2,0,0,1-1.72-.27c0-.09,0-.18,0-.27,1.3.12,2.6.33,3.92.34A2.62,2.62,0,0,1,45.59,15.21Z"/><path class="cls-62" d="M11.16,39.92l-.23.2a5,5,0,0,0-3,.06.63.63,0,0,1-.71.16.32.32,0,0,1-.19-.23A4.63,4.63,0,0,1,11.16,39.92Z"/><path class="cls-63" d="M9.93,34.78l.29.24-.44.08a11,11,0,0,0-3.71,1.15,2.09,2.09,0,0,1-.14-.17c.18-.53.67-.69,1.12-.91a6,6,0,0,1,2.42-.61A.72.72,0,0,1,9.93,34.78Z"/><path class="cls-64" d="M21.07,38.58l.25.21a4.08,4.08,0,0,0-3.12,2.29l-.16,0L17.93,41a.66.66,0,0,1-.06-.31,3.16,3.16,0,0,1,1.25-1.63C19.73,38.77,20.28,38.2,21.07,38.58Z"/><path class="cls-65" d="M7.11,48.24a6.5,6.5,0,0,0,3.51-.76.25.25,0,0,0,.11.09.67.67,0,0,1-.31.6c-1.06.41-2.09,1.06-3.29.41A.3.3,0,0,1,7.11,48.24Z"/><path class="cls-66" d="M41.33,18c.25-.14,0-.51.25-.65l1.91.7A4.26,4.26,0,0,1,41.33,18Z"/><path class="cls-67" d="M5.19,42.4a3.14,3.14,0,0,1,1.88-2.31.33.33,0,0,0,.07.13,6.2,6.2,0,0,1-1.67,2.26A.31.31,0,0,1,5.19,42.4Z"/><path class="cls-54" d="M18.19,42.37a3,3,0,0,0,.53,1.08l0,.06c-.59.28-.78-.17-1-.55a2.49,2.49,0,0,1-.21-1.17c.06-.31,0-.67.47-.73l.05,0C18.24,41.5,18,42,18.19,42.37Z"/><path class="cls-68" d="M40.37,12.55l.52-.06a1.39,1.39,0,0,1,1.79,0l.93,0a9.77,9.77,0,0,1-3.14.19.14.14,0,0,1-.11-.13Z"/><path class="cls-69" d="M5.19,42.4a.22.22,0,0,0,.14,0,1.37,1.37,0,0,1,0,1.76l-.18.22A3.67,3.67,0,0,1,5.19,42.4Z"/><path class="cls-70" d="M16.65,40.28v.33a1,1,0,0,1,.25.47,2.07,2.07,0,0,1-.13,1.23.21.21,0,0,1-.29.09s0,0,0,0A3.78,3.78,0,0,1,16.65,40.28Z"/><path class="cls-71" d="M18.19,42.37c-.34-.39-.11-.86-.17-1.28a.21.21,0,0,0,.19,0C18.2,41.52,18.2,42,18.19,42.37Z"/><path class="cls-54" d="M16.49,42.4h.14a.22.22,0,0,1,.33,0h0a.68.68,0,0,1-.06.87l-.09.08A1.12,1.12,0,0,1,16.49,42.4Z"/><path class="cls-72" d="M7.11,48.24v.22A.74.74,0,0,1,6,48.39a.32.32,0,0,0,0-.17Z"/><path class="cls-27" d="M41.56,3.18,45,2.31a21,21,0,0,1-6.88,3.76l3-.22c.18.07.32.16.27.39a.6.6,0,0,1-.28.22c-.89.19-1.81,0-2.7.28a23.31,23.31,0,0,0-2.78.16c-.4,0-.94.15-1-.38s.52-.54.89-.63A26.58,26.58,0,0,0,41.1,4.14c.35-.16.69-.31,1-.48a2.37,2.37,0,0,0,.77-.32,1.86,1.86,0,0,1-.85.25.9.9,0,0,1-.45-.13.23.23,0,0,1-.08-.18C41.53,3.22,41.55,3.18,41.56,3.18Z"/><path class="cls-73" d="M46.66,10.75a.57.57,0,0,0,0,.13c-.32.49-.86.32-1.32.39-.85,0-1.72,0-2.57,0-2-.3-4-.35-5.84-1.26a.59.59,0,0,1-.22-.31.86.86,0,0,1,0-.57.55.55,0,0,1,.82-.24.26.26,0,0,1,0,.35c.22.19-.74.13-.1.34a20.89,20.89,0,0,0,5,1C43.88,10.77,45.29,10.4,46.66,10.75Z"/><path class="cls-74" d="M42.21,5.8l2.13-.72A10.21,10.21,0,0,1,41,7.2c-.31.13-.85,0-.91.6a.94.94,0,0,1-.53.43c-.34.07-.68.1-.91-.24,0-.59.82-.25.89-.78a5.76,5.76,0,0,1,1.9-.79c.19-.18.5-.16.65-.41A.6.6,0,0,1,42.21,5.8Z"/><path class="cls-75" d="M39.56,8l.5-.21h3.15a3.43,3.43,0,0,1-2.1.74,3.15,3.15,0,0,1-.44-.11C40.32,8.25,39.82,8.42,39.56,8Z"/><path class="cls-76" d="M41.56,3.18l0,.26a.45.45,0,0,1-.33.35,8.78,8.78,0,0,1-2.4.44c-.3-.2-1.07,0-.69-.82a.75.75,0,0,1,.27-.13.36.36,0,0,1,.27.1C39.7,3.9,40.6,3.16,41.56,3.18Z"/><path class="cls-77" d="M40.88,8.26l.24.26a11.25,11.25,0,0,1-3.53.7l0-.25A6.45,6.45,0,0,1,40.88,8.26Z"/><path class="cls-78" d="M46.66,10.75c-1.38-.15-2.8.2-4.17-.19l4.36,0Z"/><path class="cls-79" d="M38.7,3.37l-.26,0c.07-.52.39-.6.82-.46l.42.05A1.48,1.48,0,0,1,38.7,3.37Z"/><path class="cls-80" d="M42.21,5.8V6a.58.58,0,0,1-.86.07l-.24-.19Z"/><path class="cls-81" d="M36.91,9.8A37.48,37.48,0,0,0,42.67,11a5.27,5.27,0,0,0,1.43.09c.6.07.9.34.58,1-.59.45-1.4,0-2,.47H40.9c-1-.4-2.22-.35-3.28-.82-.24-.1-.09.24-.09.4-.72.71-1.6,0-2.37.3a5.9,5.9,0,0,1-2.83.55,2.64,2.64,0,0,0-2.56,1.35c-.44.15-.67-.22-1-.39a2.35,2.35,0,0,0-3.65,1.57c-.1.38-.18.81-.69.89a5.81,5.81,0,0,1-2-3.39c.08-.73.68-.82,1.21-.91,3.7-.58,7.35-1.47,11-2.15C35.43,9.78,36.15,9.24,36.91,9.8Z"/><path class="cls-82" d="M44.68,12c0-.59-.25-.87-.86-.87-.39,0-.82.16-1.15-.19l2.68,0c.28.24,1.13-.3.89.65A4.21,4.21,0,0,1,44.68,12Z"/><path class="cls-78" d="M46.24,11.65c0-.65-.63-.38-.89-.65l1.32-.13a5.57,5.57,0,0,1,1.84-.09A6.21,6.21,0,0,1,46.24,11.65Z"/><path class="cls-83" d="M6,48.37l1.1.08a5.32,5.32,0,0,0,3.3-.51c.36-.08.63,0,.67.42-.87,1-2.18,1-3.3,1.38h-2A5.93,5.93,0,0,1,1.33,46.4a.79.79,0,0,1,.22.05c.32.17.52.72,1,.51s-.12-.67.15-1A4.6,4.6,0,0,0,6,48.37Z"/><path class="cls-84" d="M11.08,48.37,10.41,48l.32-.39.58-.28c.28-.09.6-.29.67.24A1.93,1.93,0,0,1,11.08,48.37Z"/><path class="cls-85" d="M12,47.51c-.17-.24-.43-.19-.67-.24a2.21,2.21,0,0,1,.68-.89.48.48,0,0,0,.42.5Z"/><path class="cls-86" d="M39.26,2.89c-.29.11-.63.16-.82.46h0c-.37.12-.68.51-1.12.27-.23-.1-.17-.61-.68-.34s-1.13.25-1.68.46a1,1,0,0,1-1.21-.16c.52-.48,1.27-.46,1.85-.8a11,11,0,0,0,3.52-.92L40,1.65c.19.2.7-.18.67.39Z"/><path class="cls-87" d="M40.67,2,40,1.63c.29-.21.76-.12.88-.58l.23.13c.13.11.37,0,.45.21A2.29,2.29,0,0,1,40.67,2Z"/><path class="cls-88" d="M41.57,1.37l-.45-.2.66-.32C42.24,1.24,41.63,1.2,41.57,1.37Z"/><path class="cls-89" d="M7.08,35.41l-1.15.66-1.06.52c.12-.59.82-.71,1-1.27s.18-1-.55-1a5.37,5.37,0,0,1,1.79-.77C7.8,34.22,7.47,34.82,7.08,35.41Z"/><path class="cls-90" d="M27.53,31.7a2.52,2.52,0,0,1-.38-1.58,1.09,1.09,0,0,1,1.19-.41c.33.07.57.08.73-.25l.19-.39a6.41,6.41,0,0,0,.49,2.63c-.39.27-.7-.06-1-.22A.91.91,0,0,0,27.53,31.7Z"/><path class="cls-91" d="M29.09,29.46c0,.36.28,1-.57.53-.44-.26-.9.06-1.35.13,0-.53-.18-1.08.13-1.59.23.06.05.37.26.45C28,29.23,28.48,29.62,29.09,29.46Z"/><path class="cls-92" d="M27.55,29c-.44.06-.1-.34-.27-.45a2.84,2.84,0,0,1,1.16-2A11.89,11.89,0,0,1,27.55,29Z"/><path class="cls-93" d="M17.11,1.1l1.51,0c.4.37.92.15,1.38.32,1.71.65,2.38,2.13,1.89,4.3A3.16,3.16,0,0,0,21.77,8c-.31.27-.76-.19-1,.28.3.24.78.41.66,1a.37.37,0,0,1-.22.19.61.61,0,0,1-.3,0A3.69,3.69,0,0,0,20,9a.64.64,0,0,1-.2-.23,2,2,0,0,1-.23-1.19.68.68,0,0,1,.25-.37,1.16,1.16,0,0,0,.65-.67,1.86,1.86,0,0,1,.32-.47A1,1,0,0,0,21,5.19c-.79-2.48-1.1-2.46-3.59-2.19a1.25,1.25,0,0,0-1.14,1.28,16.33,16.33,0,0,0,0,2,6.73,6.73,0,0,0,.59,1.31,1,1,0,0,1-.22,1.29,1.29,1.29,0,0,1-1.34.23c-.52-.19-.31-.67-.35-1s0-.59,0-.88a4.76,4.76,0,0,0-1.42-4,.71.71,0,0,1,.43-.7C14.92,1.76,16.1,1.63,17.11,1.1Z"/><path class="cls-94" d="M15.14,15c-.1-.49.16-1.06-.27-1.5.05-.11.08-.22.13-.33a3.09,3.09,0,0,1,1-2.2c.9-.77,1.92-.55,2.94-.4.53.37,1.07.71,1.56,1.13a.74.74,0,0,1,0,.83c-.51.21-.82-.2-1.17-.44-1.29-.9-2.68-.86-3.18,1.08-.22.83,0,1.78-.62,2.52Z"/><path class="cls-95" d="M15,7.2c.19.26.09.56.13.85s-.13.79.41.87a1.15,1.15,0,0,0,1.11-.29c.37-.39.16-.69-.07-1.06A2.72,2.72,0,0,1,16,6.28c.51-.17.71.37,1.1.49a4.55,4.55,0,0,0,.51.21.89.89,0,0,1,.25.16,4.31,4.31,0,0,1,.56.85.68.68,0,0,1,0,.59A13,13,0,0,1,15.89,10c-.7.19-.93-.19-1-.82Z"/><path class="cls-96" d="M16,11.17c-.33.65-.67,1.3-1,2a10.22,10.22,0,0,1-.07-2.41A.81.81,0,0,1,16,10.64.37.37,0,0,1,16,11.17Z"/><path class="cls-97" d="M16,10.71l-1.06,0c0-.52,0-1,0-1.56.17.5.47.77,1,.64a.21.21,0,0,1,.31,0A.67.67,0,0,1,16,10.71Z"/><path class="cls-98" d="M14,2.47l-.43.7-1-.7Z"/><path class="cls-99" d="M21.1,21c-.4-.08-.88,0-1.1-.47a.78.78,0,0,1,.26-1.16,3,3,0,0,0,1.91-3.11c.85-.33,1.47.53,2.28.44a34.85,34.85,0,0,0,4.13,2c.85.78.78,1-.15,1.61-2.05,1.27-4.25,1-6.46.8Z"/><path class="cls-100" d="M22.22,16.31c.3,1.85,0,2.38-1.66,3.14-.48.22-.43.71-.56,1.1a5.67,5.67,0,0,1-3.63-2.69.15.15,0,0,1,.13,0,12.25,12.25,0,0,0,4.81-3A1.22,1.22,0,0,1,22.22,16.31Z"/><path class="cls-101" d="M21.1,21c.7-.49,1.43,0,2.14,0a9.7,9.7,0,0,0,4.82-.87c1.09-.63,1.16-.49.37-1.34a.73.73,0,0,1,.63-.31,3.41,3.41,0,0,1,1.71.45,2.86,2.86,0,0,0,1.54.51,2.09,2.09,0,0,1,1,.57c.29.7-.35.71-.7.94L32,21c-1.27.6-2.83,0-4,1a13.39,13.39,0,0,0-3.1-.08,3.38,3.38,0,0,0-2.06-.47A2.86,2.86,0,0,1,21.1,21Z"/><path class="cls-102" d="M23.76,38.39l-2.2,0A.28.28,0,0,1,21.5,38l0,0c-.17-.71-.95-.66-1.33-1.08s-.46-.79.27-.82a1,1,0,0,1,.84.13l1.81.4,1.76.28a7.1,7.1,0,0,0,2.64,0,.52.52,0,0,1,.21,0c.25-.19.36-.55.71-.65h3.26c.34-.21.79-.14,1.11-.42a.5.5,0,0,1,.7,0c.24.19.15.46,0,.7a4.78,4.78,0,0,1-.68,1.13,6.84,6.84,0,0,1-2.45.87h-.24A37.2,37.2,0,0,1,23.76,38.39Z"/><path class="cls-103" d="M28.44,36.15c0,.46-.38.54-.71.65,0-.56-.49-.48-.77-.62a9.76,9.76,0,0,1-4.34-4c.2-.28.44-.23.67-.07h.27a7.91,7.91,0,0,0,3.35,2.9C27.2,35.71,28,35.66,28.44,36.15Z"/><path class="cls-104" d="M23.29,32.14l-.67.07-.38-.32c-.06-.22-.12-.45-.18-.66a.59.59,0,0,1,.4-.2Z"/><path class="cls-105" d="M27.52,36.84a3.62,3.62,0,0,1-2.65,0Z"/><path class="cls-106" d="M21.35,9.35c-.06-.59-.51-.77-1-1a1,1,0,0,1,1.44-.33l.68.4c.83,0,1.72.3,2.45-.4,1.4,0,2.41-1,3.54-1.62,1.74-1,3.34-2.28,5.3-2.87,1,.24,1.84-.44,2.8-.56.67-.08.66.22.82.59a.94.94,0,0,0-.1.1,4.57,4.57,0,0,0-.88.51c-1.1.47-2.26.8-3.39,1.2,1.29-.4,2.57-.87,3.85-1.3A2.59,2.59,0,0,1,38.69,4l2.67-.41a.49.49,0,0,1,0,.67A11.31,11.31,0,0,1,38.1,5.56c-1.07.32-2.19.56-3.33.85.21.37.52.23.78.27,1-.25,1.93.11,2.88-.2a10.18,10.18,0,0,1,2.81-.23.35.35,0,0,1,.38.28l-2,.85a3,3,0,0,1-1.63.34c.27,0,.53-.08.71.14a1.05,1.05,0,0,0,.94.15c.42.18.95-.13,1.32.28a13.45,13.45,0,0,1-3.32.7c-.25,0-.51-.06-.68.18a1.08,1.08,0,0,1-.93.25A29,29,0,0,0,25.91,10a7.43,7.43,0,0,1-3.6,0C22,9.78,21.58,9.67,21.35,9.35Z"/><path class="cls-107" d="M16.9,35.66a22.79,22.79,0,0,0-5.16-1.08.68.68,0,0,1-.29-.95c.24-.4.61-.3,1-.15A15.65,15.65,0,0,1,17,34.65C17.4,35,17.14,35.33,16.9,35.66Z"/><path class="cls-108" d="M12.41,33.48c-.95-.07-1,.4-.67,1.1a4.8,4.8,0,0,0-1.8.2l-.4,0c-.39-.67-.08-1.12.46-1.5l.25-.11C10.94,33.38,11.72,33.12,12.41,33.48Z"/><path class="cls-109" d="M16.9,35.66c0-.33,0-.68,0-1a10.86,10.86,0,0,1,2.83,1c-.25.42-.77.36-1.09.63a2.33,2.33,0,0,0-1.13-.24A1,1,0,0,0,16.9,35.66Z"/><path class="cls-110" d="M18.68,36.29c.11-.66.65-.54,1.09-.63l.63.08.91.43c-.36.24-1.4-.61-1.12.69Z"/><path class="cls-111" d="M32.89,37.52a1.94,1.94,0,0,1,.47-1.31c.09-.11.16-.25,0-.38a.27.27,0,0,0-.38,0h0c-.36.45-.84.33-1.31.32l.33-.4a1.16,1.16,0,0,0,1-.63,18.06,18.06,0,0,1-4.4-1.63c-.27-.67-1.08-1-1.14-1.78s.23-1.15,1.09-.59a3.58,3.58,0,0,0,1.13.59c.31.53,1,.62,1.36,1.05,1,.82,2.2.6,3.34.34.39-.08.76-.44,1.1,0s.18.84-.11,1.23c-.62.88-.57,2.19-1.69,2.76C33.49,37.24,33.27,37.52,32.89,37.52Z"/><path class="cls-112" d="M39.27,31.7a10.59,10.59,0,0,1-3.72,4.37c-.42-.51-.11-1,.13-1.42a6.32,6.32,0,0,0,1-2.95.3.3,0,0,0,.06-.18,2.15,2.15,0,0,0,1.05-1l.62-.68c.29,0,.37-.55.71-.36s.21.51.27.8C39.46,30.79,39,31.22,39.27,31.7Z"/><path class="cls-113" d="M36.67,31.71c.63,1-.12,1.79-.5,2.62a3.21,3.21,0,0,0-.61,1.74,3.71,3.71,0,0,1-1.8,1c.82-.85.72-2.19,1.58-3a.63.63,0,0,0,0-.9h0c-.22-.24-.5,0-.76.19a3.38,3.38,0,0,1-3.47-.58C33.19,33.57,35,32.87,36.67,31.71Z"/><path class="cls-114" d="M10,33.26a2.94,2.94,0,0,0-.46,1.5,10.61,10.61,0,0,0-2.45.67c0-.61.34-1.21,0-1.83A8,8,0,0,1,10,33.26Z"/><path class="cls-115" d="M22.45,31a.35.35,0,0,1-.4.21,4.79,4.79,0,0,1-.46-1.8Z"/><path class="cls-116" d="M39.27,31.7c-.41-.1-.39-.36-.27-.69a3.16,3.16,0,0,0,.1-1.34c-.24.11-.39.51-.7.2a6.62,6.62,0,0,0,.93-2.65,2.27,2.27,0,0,0,0-2,1.93,1.93,0,0,0-.62-1.59c-.28-1.14-1.26-1.68-2.05-2.37.32-.47.33-.47.72-.35a6,6,0,0,1,1.91,1.21,11.76,11.76,0,0,1,1,2.87,8.74,8.74,0,0,1-.29,4.7A4.87,4.87,0,0,0,39.57,31Z"/><path class="cls-117" d="M39.27,22.13c-.82,0-1.24-.81-2-1-.28-.08-.47-.16-.63.13l-.23-.05c-.42-.54-1.15-.65-1.63-1.1.8-.55,1.73.12,2.55-.29A3.35,3.35,0,0,1,39.27,22.13Z"/><path class="cls-118" d="M21.32,15a3.73,3.73,0,0,1-2.73,2.15c-.17,0-.44.11-.48.22-.29.95-1,.61-1.6.52-.1-.33-.51-.51-.48-.92-.64-1.67.09-3.2.67-4.66.4-1,2.12-.81,3,.27a23.76,23.76,0,0,1,1.65,2.07A.4.4,0,0,1,21.32,15Z"/><path class="cls-119" d="M21.32,14.75a5.4,5.4,0,0,1-1.5-1.62,2.35,2.35,0,0,0-1-1c-1.15-.55-2.06-.22-2.2,1s-1,2.41-.58,3.75a1.42,1.42,0,0,1-.48-1.28,8.47,8.47,0,0,1,.5-3.23,1.85,1.85,0,0,1,2.67-1.07,19.36,19.36,0,0,1,1.74,1.15,2.12,2.12,0,0,1,.64.43,1.45,1.45,0,0,1,.5,1A.83.83,0,0,1,21.32,14.75Z"/><path class="cls-120" d="M32.67,21c.12-.36.67-.37.66-.84A.62.62,0,0,1,34.1,20l.13.12c.1.48.75.45.86.9Z"/><path class="cls-121" d="M37.35,19.82a1.19,1.19,0,0,1-1.46.37,3.37,3.37,0,0,0-1.09-.08l-.57,0v0c-1.17-.41-2.44-.47-3.57-1l-1.5-.37c-.33-.16-.7-.1-1-.23s-.53-.16-.26-.5c.29-.11.43-.4.59-.64.5-.76.24-1.31-.71-1.62C29,16.18,29,16.8,27.9,18a2.59,2.59,0,0,1-2.81-1.23A2.7,2.7,0,0,1,25.76,14a2.89,2.89,0,0,1,3.3,0,14.27,14.27,0,0,1,2.51,2.81c.17.18.27.43.5.57.07-1,.32-1.18,1.12-.61a7.84,7.84,0,0,0,1.07.74,3.21,3.21,0,0,1,1,.87Z"/><path class="cls-122" d="M36.65,18.77l-1-.49a6.49,6.49,0,0,1-1.46-.8c-.66-.61-1.7-.81-2-1.84l.92-1.13c.66-.32.86.38,1.24.61a6.6,6.6,0,0,1,1.42,1.51,8.71,8.71,0,0,1,.93,1v0c-.11.28.16.46.22.7A.35.35,0,0,1,36.65,18.77Z"/><path class="cls-123" d="M31.51,17a5,5,0,0,1-1.29-1.61,3.57,3.57,0,0,0-2.85-1.77,2.1,2.1,0,1,0-.17,4.2,3.77,3.77,0,0,0,.76-.07A.19.19,0,0,1,28,18s0,.05,0,.06c.23.5.85.31,1.17.67l-.74.06a12,12,0,0,1-3.92-1.87.36.36,0,0,1-.21-.39.41.41,0,0,1,.17-.27,1.52,1.52,0,0,0,.3-.43c.83-2.89,2.62-3.45,5-1.56l.83.92a1.59,1.59,0,0,1,.68.7c.15.29.42.53.4.91A.46.46,0,0,1,31.51,17Z"/><path class="cls-123" d="M32.19,15.65c.53.77,1.4,1.12,2,1.76a.16.16,0,0,1,0,.23.1.1,0,0,1-.07.05l-1.8-1.15c-.43.57.37.94.12,1.49a1.35,1.35,0,0,1-1-1l.1-.15c.14-.4-.24-.85.1-1.24a.24.24,0,0,1,.29,0A.49.49,0,0,0,32.19,15.65Z"/><path class="cls-124" d="M35.75,16.76c-.9-.72-1.48-1.81-2.64-2.23l-.25-.24c-.11-.19-.55,0-.44-.44.54-.14.92.2,1.28.49a18.1,18.1,0,0,0,2.74,1.78c0,.1,0,.21,0,.32-.21,0-.45-.5-.64,0C35.9,16.58,35.88,16.68,35.75,16.76Z"/><path class="cls-125" d="M37.1,13.88c0,.14,0,.29,0,.44.22.58.94.71,1.12,1.31-1.1-.35-1.59-1.38-2.57-2.11C36.37,13.4,36.67,13.81,37.1,13.88Z"/><path class="cls-126" d="M43.35,14.72l1.72.27a6,6,0,0,1-2.38.17c0-.33-.35-.39-.43-.66Z"/><path class="cls-122" d="M32,15.6l-.23.06c-.18.19-.12.78-.65.41l-.52-.86C31.07,15.33,31.71,14.83,32,15.6Z"/><path class="cls-127" d="M38.23,15.6c.69.28,1.44.47,1.78,1.26C39.39,16.48,38.62,16.32,38.23,15.6Z"/><path class="cls-122" d="M32.42,13.85l.44.44c-.26-.06-.62.15-.74-.23C32.07,13.92,32.28,13.87,32.42,13.85Z"/><path class="cls-128" d="M5.34,44.18c0-.59,0-1.17,0-1.76l1.8-2.2.83,0c.42,0,.86,0,1.28,0,.83,0,.26.39.12.63a10.57,10.57,0,0,0-1.67.77,1.37,1.37,0,0,0-.21,2.18c.54.56.85,1.11.21,1.73s-1.4.25-1.91-.56Z"/><path class="cls-112" d="M39.56,31c0-.47-.16-1,.42-1.29l0,.23A2.79,2.79,0,0,1,39.56,31Z"/><path class="cls-129" d="M36.65,18.77l.26-.47.87,1.08-.13.17Z"/><path class="cls-130" d="M34.19,17.69l0-.28a4.42,4.42,0,0,1,1.38.87l-.32,0C34.8,18.34,34.54,18,34.19,17.69Z"/><path class="cls-131" d="M19.16,39.29a5.23,5.23,0,0,0-1.22,1.54c-.64.05-1-.17-.82-.88a2.09,2.09,0,0,1,1.31-1.36C18.88,38.59,18.92,39,19.16,39.29Z"/><path class="cls-132" d="M19.16,39.29c-.58.11-.51-.46-.73-.71a10.56,10.56,0,0,1,3.1-.63c0,.13,0,.27,0,.4l-.49.24C20.33,38.55,19.8,39.06,19.16,39.29Z"/><path class="cls-71" d="M17.11,39.93c0,.58.47.67.82.89q0,.1,0,.24c-.24.15-.18.42-.23.64-.31.34-.58.21-.84-.05s-.09-.41-.2-.61l0-.43Z"/><path class="cls-133" d="M23.76,38.39h6.45A18.63,18.63,0,0,1,23.76,38.39Z"/><path class="cls-134" d="M16.87,41.54a1.32,1.32,0,0,0,.87.16c.13.7,0,1.56.94,1.82.31.91,1.16.57,1.93.78-1.65.8-2.66-.17-3.7-1,0-.28-.05-.56-.06-.85A1.22,1.22,0,0,1,16.87,41.54Z"/><path class="cls-125" d="M35.75,16.76c0-.09,0-.2,0-.3a2.06,2.06,0,0,1,.89,1.16C36.22,17.52,36,17.1,35.75,16.76Z"/><path class="cls-135" d="M16.87,41.54l0,.9-.21,0L16.69,41C16.76,41.21,16.81,41.37,16.87,41.54Z"/><path class="cls-136" d="M38.41,6.48c-.93.51-1.92.13-2.88.2C36.46,6.3,37.45,6.58,38.41,6.48Z"/><path class="cls-137" d="M41.36,4.29c0-.22,0-.45,0-.67l.25-.16.45,0c.18.1.37.19.22.45A2,2,0,0,1,41.36,4.29Z"/><path class="cls-138" d="M42.25,3.86,42,3.41c.46,0,.86-.41,1.42-.21A2.69,2.69,0,0,1,42.25,3.86Z"/><path class="cls-139" d="M41.59,6.52l-.37-.28a2.43,2.43,0,0,1,.14-.2L42.22,6C42.27,6.48,41.85,6.4,41.59,6.52Z"/><path class="cls-140" d="M36.91,9.8c-1.73.2-3.41.72-5.12,1-2.62.47-5.2,1.15-7.84,1.51-.47.06-1.3-.11-1.29.83C22,13,22.06,12.47,22,12c.64-1.1,1.82-1,2.8-1.23,2.34-.59,4.75-.93,7.1-1.48a16.37,16.37,0,0,1,3-.11,3.78,3.78,0,0,1,2,.42A1.64,1.64,0,0,1,36.91,9.8Z"/><path class="cls-141" d="M22.2,12.08a2.35,2.35,0,0,0,.47,1.07,14.47,14.47,0,0,0,1.8,3.13l0,.29c-.68.2-.77-.42-1.07-.76a9.65,9.65,0,0,0-.84-1.47c-.28-.48-.46-1-.71-1.52a12.14,12.14,0,0,0-1.92-3.06c-.37-.57-1.15-.64-1.44-1.3L18.22,8a.49.49,0,0,1,.45-.1,3.11,3.11,0,0,1,1.34,1h0c.28.18.67.16.9.42a.14.14,0,0,0,.13,0c.37.23.83-.06,1.17.23a9.63,9.63,0,0,0,5-.19A26,26,0,0,1,36,9.09c.29,0,.58,0,.87.06a3.17,3.17,0,0,0,0,.43,7.1,7.1,0,0,0-2-.22,17.85,17.85,0,0,0-6.35.47c-1.78.38-3.56.66-5.37.88C22.25,10.83,21.93,11.18,22.2,12.08Z"/><path class="cls-75" d="M38.63,7.84l-.84,0a.76.76,0,0,0,0-.15l1.76-.29C39.45,7.94,39,7.76,38.63,7.84Z"/><path class="cls-142" d="M38.67,4c-2.23.26-4.28,1.2-6.52,1.54L36.45,4c.19-.38.62-.2.89-.39h0l1.09-.24C37.88,3.79,38.57,3.8,38.67,4Z"/><path class="cls-143" d="M18.65,8.11,18.21,8c-.12-.29-.47-.47-.42-.84.27-.33.66-.28,1-.3a1.3,1.3,0,0,0,1.32-1.11c.17-.68.47-1.36-.26-1.92a3.08,3.08,0,0,0-2.54-.24A1.68,1.68,0,0,0,17.13,6a.65.65,0,0,1,0,.92c-.53,0-.7-.51-1.11-.65,0-.23,0-.45,0-.67,0-2.72,1.34-3.79,3.9-2.85,1.06.4,1.24,1.58,1.44,2.62-.24.25-.16.66-.42.9l-.24.44a2.08,2.08,0,0,1-.65.67l-.24.21C19.53,8.07,19,7.94,18.65,8.11Z"/><path class="cls-144" d="M18.65,8.11c.16-.66.83-.16,1.12-.52.08.46.15.9.23,1.35Z"/><path class="cls-144" d="M20.89,6.26a.78.78,0,0,1,.42-.89C21.31,5.73,21.48,6.18,20.89,6.26Z"/><path class="cls-144" d="M20.9,9.36a1.43,1.43,0,0,1-.9-.42C20.35,9,20.8,8.79,20.9,9.36Z"/><path class="cls-144" d="M20,7.38a1.39,1.39,0,0,1,.66-.67A.62.62,0,0,1,20,7.38Z"/><path class="cls-144" d="M22.2,9.62c-.39-.09-.83.09-1.17-.23l.3,0C21.64,9.43,22,9.25,22.2,9.62Z"/><path class="cls-145" d="M16,10.71l.24-.87c.82-.25,1.59-1.16,2.51-.18.22.42,1.11.31.85,1.1a.38.38,0,0,1-.48,0c-1.05,0-2.15-.27-3.1.44Z"/><path class="cls-146" d="M20.93,13a.44.44,0,0,1-.49-.44l0-.86.14-.11c.82.15,1.15.6.85,1.42A.35.35,0,0,1,20.93,13Z"/><path class="cls-146" d="M19.1,10.72h.46c.76-.16,1.05.13.88.9l0,0A1.43,1.43,0,0,1,19.1,10.72Z"/><path class="cls-147" d="M16.91,6a2.06,2.06,0,0,0-.27.12,3,3,0,0,1-.07-2.24c.17-.6.76-.8,1.43-.81,1.6,0,2.75.69,2.69,1.76-.08,1.55-.85,2.27-2.47,2.29h-.44l-.06,0h-.07c-.31-.12-.27-.36-.21-.6a1.13,1.13,0,0,1,.69-.49A1.55,1.55,0,0,1,18.56,6a1,1,0,0,0,1.07-.89,1,1,0,0,0-.82-1,1.14,1.14,0,0,0-1.37.64C17.22,5.15,17.25,5.68,16.91,6Z"/><path class="cls-148" d="M18.67,9.83c-.81-.84-1.62.17-2.44,0L16,9.8a9.24,9.24,0,0,1,2.47-1.34C19,8.8,19.65,9,20,9.58,19.7,10.41,19.16,10,18.67,9.83Z"/><path class="cls-149" d="M17.48,6.53c.06.2.12.42.17.62a.48.48,0,0,1-.53-.23c0-.31.05-.63-.21-.88a2.4,2.4,0,0,1,.47-1.78,1.36,1.36,0,0,1,1.79-.41,1.21,1.21,0,0,1,.69,1.47c-.21.89-.83,1-1.62.93-.08-.44.33-.42.54-.56a.76.76,0,0,0,.41-.82.57.57,0,0,0-.54-.48.83.83,0,0,0-.87.52C17.49,5.42,17.72,6,17.48,6.53Z"/><path class="cls-150" d="M23.54,15.64c.31.3.43.79.91.93,0,.13.05.25.06.37-.88.22-1.49-.55-2.27-.63-.35-.41-.45-1-.91-1.34a.78.78,0,0,0,0-.22c0-.3,0-.61,0-.9.42-.28.56.09.77.33A2.57,2.57,0,0,0,23.54,15.64Z"/><path class="cls-31" d="M30.66,19.11a8.74,8.74,0,0,1,3.57,1l-.92,0C32.53,19.52,31.35,20,30.66,19.11Z"/><path class="cls-86" d="M37.34,3.59,36.45,4C36.55,3.42,37,3.62,37.34,3.59Z"/><path class="cls-151" d="M22,14.32c-.23-.13-.29-.5-.64-.47,0-.39-.35-.58-.42-.9h.44a.66.66,0,0,1,.62-.19,5.88,5.88,0,0,1,.76,1.55A.59.59,0,0,1,22,14.32Z"/><path class="cls-152" d="M28,18.08c0-.1,0-.19,0-.3a1.14,1.14,0,0,1,.13-.3.94.94,0,0,0,.22-1.29c-.37-.55-.85-.13-1.32-.12a.94.94,0,0,1,1.36-.36c.69.33.69,1,.42,1.63A1.34,1.34,0,0,1,28,18.08Z"/><path class="cls-153" d="M31.12,16.07c.34.06.41-.3.65-.41-.08.41.17.85-.15,1.22Z"/><path class="cls-154" d="M22.2,12.08c-.22-.4-.71-.72-.39-1.26s.79-.3,1.23-.37c1.7-.3,3.44-.37,5.11-.83a15.5,15.5,0,0,1,6.74-.25c-1.85-.14-3.58.57-5.37.72s-3.15.9-4.82,1A2.88,2.88,0,0,0,22.2,12.08Z"/><path class="cls-155" d="M22,12.73c-.15.24-.39.22-.62.19a1.24,1.24,0,0,0-.93-1.32,1,1,0,0,0-.88-.9c0-.63-.94-.25-.91-.88.45-.09,1,.19,1.35-.26A8,8,0,0,1,22,12.73Z"/><path class="cls-156" d="M22,14.32l.75,0a4.1,4.1,0,0,1,.78,1.34C22.55,15.73,22.18,15.14,22,14.32Z"/><path class="cls-157" d="M17.48,6.53a2,2,0,0,1,0-1.9,1.05,1.05,0,0,1,1.3-.58.9.9,0,0,1,.75,1,.92.92,0,0,1-.93,1c-.17,0-.37,0-.41.24Z"/></svg>